<svg xmlns="http://www.w3.org/2000/svg" xmlns:xlink="http://www.w3.org/1999/xlink" width="500" zoomAndPan="magnify" viewBox="0 0 375 374.999991" height="500" preserveAspectRatio="xMidYMid meet" version="1.0"><defs><g/><clipPath id="2b33ec66e6"><path d="M 187.5 0 C 83.945312 0 0 83.945312 0 187.5 C 0 291.054688 83.945312 375 187.5 375 C 291.054688 375 375 291.054688 375 187.5 C 375 83.945312 291.054688 0 187.5 0 Z M 187.5 0 " clip-rule="nonzero"/></clipPath><clipPath id="600699bd60"><path d="M 0 0 L 375 0 L 375 375 L 0 375 Z M 0 0 " clip-rule="nonzero"/></clipPath><clipPath id="69d64ccfa1"><path d="M 187.5 0 C 83.945312 0 0 83.945312 0 187.5 C 0 291.054688 83.945312 375 187.5 375 C 291.054688 375 375 291.054688 375 187.5 C 375 83.945312 291.054688 0 187.5 0 Z M 187.5 0 " clip-rule="nonzero"/></clipPath><linearGradient x1="0" gradientTransform="matrix(1.464844, 0, 0, 1.464844, 0.0000045, 0.000000000000042633)" y1="128" x2="256" gradientUnits="userSpaceOnUse" y2="128" id="62f1672c96"><stop stop-opacity="1" stop-color="rgb(0%, 0%, 0%)" offset="0"/><stop stop-opacity="1" stop-color="rgb(0.0808716%, 0.0778198%, 0.312805%)" offset="0.00390625"/><stop stop-opacity="1" stop-color="rgb(0.161743%, 0.15564%, 0.627136%)" offset="0.0078125"/><stop stop-opacity="1" stop-color="rgb(0.242615%, 0.233459%, 0.941467%)" offset="0.0117188"/><stop stop-opacity="1" stop-color="rgb(0.323486%, 0.311279%, 1.255798%)" offset="0.015625"/><stop stop-opacity="1" stop-color="rgb(0.404358%, 0.389099%, 1.568604%)" offset="0.0195312"/><stop stop-opacity="1" stop-color="rgb(0.486755%, 0.468445%, 1.882935%)" offset="0.0234375"/><stop stop-opacity="1" stop-color="rgb(0.567627%, 0.546265%, 2.197266%)" offset="0.0273438"/><stop stop-opacity="1" stop-color="rgb(0.648499%, 0.624084%, 2.511597%)" offset="0.03125"/><stop stop-opacity="1" stop-color="rgb(0.72937%, 0.701904%, 2.824402%)" offset="0.0351562"/><stop stop-opacity="1" stop-color="rgb(0.810242%, 0.78125%, 3.138733%)" offset="0.0390625"/><stop stop-opacity="1" stop-color="rgb(0.891113%, 0.85907%, 3.453064%)" offset="0.0429688"/><stop stop-opacity="1" stop-color="rgb(0.973511%, 0.93689%, 3.767395%)" offset="0.046875"/><stop stop-opacity="1" stop-color="rgb(1.054382%, 1.014709%, 4.081726%)" offset="0.0507812"/><stop stop-opacity="1" stop-color="rgb(1.135254%, 1.092529%, 4.396057%)" offset="0.0546875"/><stop stop-opacity="1" stop-color="rgb(1.216125%, 1.170349%, 4.708862%)" offset="0.0585938"/><stop stop-opacity="1" stop-color="rgb(1.298523%, 1.249695%, 5.023193%)" offset="0.0625"/><stop stop-opacity="1" stop-color="rgb(1.379395%, 1.327515%, 5.337524%)" offset="0.0664062"/><stop stop-opacity="1" stop-color="rgb(1.460266%, 1.405334%, 5.651855%)" offset="0.0703125"/><stop stop-opacity="1" stop-color="rgb(1.541138%, 1.483154%, 5.964661%)" offset="0.0742188"/><stop stop-opacity="1" stop-color="rgb(1.622009%, 1.5625%, 6.278992%)" offset="0.078125"/><stop stop-opacity="1" stop-color="rgb(1.702881%, 1.64032%, 6.593323%)" offset="0.0820312"/><stop stop-opacity="1" stop-color="rgb(1.785278%, 1.71814%, 6.907654%)" offset="0.0859375"/><stop stop-opacity="1" stop-color="rgb(1.86615%, 1.795959%, 7.221985%)" offset="0.0898438"/><stop stop-opacity="1" stop-color="rgb(1.947021%, 1.873779%, 7.536316%)" offset="0.09375"/><stop stop-opacity="1" stop-color="rgb(2.027893%, 1.951599%, 7.849121%)" offset="0.0976562"/><stop stop-opacity="1" stop-color="rgb(2.110291%, 2.030945%, 8.163452%)" offset="0.101562"/><stop stop-opacity="1" stop-color="rgb(2.191162%, 2.108765%, 8.477783%)" offset="0.105469"/><stop stop-opacity="1" stop-color="rgb(2.272034%, 2.186584%, 8.792114%)" offset="0.109375"/><stop stop-opacity="1" stop-color="rgb(2.352905%, 2.264404%, 9.104919%)" offset="0.113281"/><stop stop-opacity="1" stop-color="rgb(2.433777%, 2.34375%, 9.41925%)" offset="0.117188"/><stop stop-opacity="1" stop-color="rgb(2.514648%, 2.42157%, 9.733582%)" offset="0.121094"/><stop stop-opacity="1" stop-color="rgb(2.597046%, 2.49939%, 10.047913%)" offset="0.125"/><stop stop-opacity="1" stop-color="rgb(2.677917%, 2.577209%, 10.362244%)" offset="0.128906"/><stop stop-opacity="1" stop-color="rgb(2.758789%, 2.655029%, 10.676575%)" offset="0.132812"/><stop stop-opacity="1" stop-color="rgb(2.839661%, 2.732849%, 10.98938%)" offset="0.136719"/><stop stop-opacity="1" stop-color="rgb(2.922058%, 2.812195%, 11.303711%)" offset="0.140625"/><stop stop-opacity="1" stop-color="rgb(3.00293%, 2.890015%, 11.618042%)" offset="0.144531"/><stop stop-opacity="1" stop-color="rgb(3.083801%, 2.967834%, 11.932373%)" offset="0.148438"/><stop stop-opacity="1" stop-color="rgb(3.164673%, 3.045654%, 12.245178%)" offset="0.152344"/><stop stop-opacity="1" stop-color="rgb(3.245544%, 3.125%, 12.559509%)" offset="0.15625"/><stop stop-opacity="1" stop-color="rgb(3.326416%, 3.20282%, 12.87384%)" offset="0.160156"/><stop stop-opacity="1" stop-color="rgb(3.408813%, 3.28064%, 13.188171%)" offset="0.164062"/><stop stop-opacity="1" stop-color="rgb(3.489685%, 3.358459%, 13.502502%)" offset="0.167969"/><stop stop-opacity="1" stop-color="rgb(3.570557%, 3.436279%, 13.816833%)" offset="0.171875"/><stop stop-opacity="1" stop-color="rgb(3.651428%, 3.514099%, 14.129639%)" offset="0.175781"/><stop stop-opacity="1" stop-color="rgb(3.733826%, 3.593445%, 14.44397%)" offset="0.179688"/><stop stop-opacity="1" stop-color="rgb(3.814697%, 3.671265%, 14.758301%)" offset="0.183594"/><stop stop-opacity="1" stop-color="rgb(3.895569%, 3.749084%, 15.072632%)" offset="0.1875"/><stop stop-opacity="1" stop-color="rgb(3.97644%, 3.826904%, 15.385437%)" offset="0.191406"/><stop stop-opacity="1" stop-color="rgb(4.057312%, 3.90625%, 15.699768%)" offset="0.195312"/><stop stop-opacity="1" stop-color="rgb(4.138184%, 3.98407%, 16.014099%)" offset="0.199219"/><stop stop-opacity="1" stop-color="rgb(4.220581%, 4.06189%, 16.32843%)" offset="0.203125"/><stop stop-opacity="1" stop-color="rgb(4.301453%, 4.139709%, 16.642761%)" offset="0.207031"/><stop stop-opacity="1" stop-color="rgb(4.382324%, 4.217529%, 16.957092%)" offset="0.210938"/><stop stop-opacity="1" stop-color="rgb(4.463196%, 4.295349%, 17.269897%)" offset="0.214844"/><stop stop-opacity="1" stop-color="rgb(4.545593%, 4.374695%, 17.584229%)" offset="0.21875"/><stop stop-opacity="1" stop-color="rgb(4.626465%, 4.452515%, 17.89856%)" offset="0.222656"/><stop stop-opacity="1" stop-color="rgb(4.707336%, 4.530334%, 18.212891%)" offset="0.226562"/><stop stop-opacity="1" stop-color="rgb(4.788208%, 4.608154%, 18.525696%)" offset="0.230469"/><stop stop-opacity="1" stop-color="rgb(4.86908%, 4.6875%, 18.840027%)" offset="0.234375"/><stop stop-opacity="1" stop-color="rgb(4.949951%, 4.76532%, 19.154358%)" offset="0.238281"/><stop stop-opacity="1" stop-color="rgb(5.032349%, 4.84314%, 19.468689%)" offset="0.242188"/><stop stop-opacity="1" stop-color="rgb(5.11322%, 4.920959%, 19.78302%)" offset="0.246094"/><stop stop-opacity="1" stop-color="rgb(5.194092%, 4.998779%, 20.097351%)" offset="0.25"/><stop stop-opacity="1" stop-color="rgb(5.274963%, 5.076599%, 20.410156%)" offset="0.253906"/><stop stop-opacity="1" stop-color="rgb(5.355835%, 5.155945%, 20.724487%)" offset="0.257812"/><stop stop-opacity="1" stop-color="rgb(5.436707%, 5.233765%, 21.038818%)" offset="0.261719"/><stop stop-opacity="1" stop-color="rgb(5.519104%, 5.311584%, 21.353149%)" offset="0.265625"/><stop stop-opacity="1" stop-color="rgb(5.599976%, 5.389404%, 21.665955%)" offset="0.269531"/><stop stop-opacity="1" stop-color="rgb(5.680847%, 5.46875%, 21.980286%)" offset="0.273438"/><stop stop-opacity="1" stop-color="rgb(5.761719%, 5.54657%, 22.294617%)" offset="0.277344"/><stop stop-opacity="1" stop-color="rgb(5.844116%, 5.62439%, 22.608948%)" offset="0.28125"/><stop stop-opacity="1" stop-color="rgb(5.924988%, 5.702209%, 22.923279%)" offset="0.285156"/><stop stop-opacity="1" stop-color="rgb(6.005859%, 5.780029%, 23.23761%)" offset="0.289062"/><stop stop-opacity="1" stop-color="rgb(6.086731%, 5.857849%, 23.550415%)" offset="0.292969"/><stop stop-opacity="1" stop-color="rgb(6.167603%, 5.937195%, 23.864746%)" offset="0.296875"/><stop stop-opacity="1" stop-color="rgb(6.248474%, 6.015015%, 24.179077%)" offset="0.300781"/><stop stop-opacity="1" stop-color="rgb(6.330872%, 6.092834%, 24.493408%)" offset="0.304688"/><stop stop-opacity="1" stop-color="rgb(6.411743%, 6.170654%, 24.806213%)" offset="0.308594"/><stop stop-opacity="1" stop-color="rgb(6.492615%, 6.25%, 25.120544%)" offset="0.3125"/><stop stop-opacity="1" stop-color="rgb(6.573486%, 6.32782%, 25.434875%)" offset="0.316406"/><stop stop-opacity="1" stop-color="rgb(6.655884%, 6.40564%, 25.749207%)" offset="0.320312"/><stop stop-opacity="1" stop-color="rgb(6.736755%, 6.483459%, 26.063538%)" offset="0.324219"/><stop stop-opacity="1" stop-color="rgb(6.817627%, 6.561279%, 26.377869%)" offset="0.328125"/><stop stop-opacity="1" stop-color="rgb(6.898499%, 6.639099%, 26.690674%)" offset="0.332031"/><stop stop-opacity="1" stop-color="rgb(6.97937%, 6.718445%, 27.005005%)" offset="0.335938"/><stop stop-opacity="1" stop-color="rgb(7.060242%, 6.796265%, 27.319336%)" offset="0.339844"/><stop stop-opacity="1" stop-color="rgb(7.142639%, 6.874084%, 27.633667%)" offset="0.34375"/><stop stop-opacity="1" stop-color="rgb(7.223511%, 6.951904%, 27.946472%)" offset="0.347656"/><stop stop-opacity="1" stop-color="rgb(7.304382%, 7.03125%, 28.260803%)" offset="0.351562"/><stop stop-opacity="1" stop-color="rgb(7.385254%, 7.10907%, 28.575134%)" offset="0.355469"/><stop stop-opacity="1" stop-color="rgb(7.467651%, 7.18689%, 28.889465%)" offset="0.359375"/><stop stop-opacity="1" stop-color="rgb(7.548523%, 7.264709%, 29.203796%)" offset="0.363281"/><stop stop-opacity="1" stop-color="rgb(7.629395%, 7.342529%, 29.518127%)" offset="0.367188"/><stop stop-opacity="1" stop-color="rgb(7.710266%, 7.420349%, 29.830933%)" offset="0.371094"/><stop stop-opacity="1" stop-color="rgb(7.791138%, 7.499695%, 30.145264%)" offset="0.375"/><stop stop-opacity="1" stop-color="rgb(7.872009%, 7.577515%, 30.459595%)" offset="0.378906"/><stop stop-opacity="1" stop-color="rgb(7.954407%, 7.655334%, 30.773926%)" offset="0.382812"/><stop stop-opacity="1" stop-color="rgb(8.035278%, 7.733154%, 31.086731%)" offset="0.386719"/><stop stop-opacity="1" stop-color="rgb(8.11615%, 7.8125%, 31.401062%)" offset="0.390625"/><stop stop-opacity="1" stop-color="rgb(8.197021%, 7.89032%, 31.715393%)" offset="0.394531"/><stop stop-opacity="1" stop-color="rgb(8.279419%, 7.96814%, 32.029724%)" offset="0.398438"/><stop stop-opacity="1" stop-color="rgb(8.360291%, 8.045959%, 32.344055%)" offset="0.402344"/><stop stop-opacity="1" stop-color="rgb(8.441162%, 8.123779%, 32.658386%)" offset="0.40625"/><stop stop-opacity="1" stop-color="rgb(8.522034%, 8.201599%, 32.971191%)" offset="0.410156"/><stop stop-opacity="1" stop-color="rgb(8.602905%, 8.280945%, 33.285522%)" offset="0.414062"/><stop stop-opacity="1" stop-color="rgb(8.683777%, 8.358765%, 33.599854%)" offset="0.417969"/><stop stop-opacity="1" stop-color="rgb(8.766174%, 8.436584%, 33.914185%)" offset="0.421875"/><stop stop-opacity="1" stop-color="rgb(8.847046%, 8.514404%, 34.22699%)" offset="0.425781"/><stop stop-opacity="1" stop-color="rgb(8.927917%, 8.59375%, 34.541321%)" offset="0.429688"/><stop stop-opacity="1" stop-color="rgb(9.008789%, 8.67157%, 34.855652%)" offset="0.433594"/><stop stop-opacity="1" stop-color="rgb(9.091187%, 8.74939%, 35.169983%)" offset="0.4375"/><stop stop-opacity="1" stop-color="rgb(9.172058%, 8.827209%, 35.484314%)" offset="0.441406"/><stop stop-opacity="1" stop-color="rgb(9.25293%, 8.905029%, 35.798645%)" offset="0.445312"/><stop stop-opacity="1" stop-color="rgb(9.333801%, 8.982849%, 36.11145%)" offset="0.449219"/><stop stop-opacity="1" stop-color="rgb(9.414673%, 9.062195%, 36.425781%)" offset="0.453125"/><stop stop-opacity="1" stop-color="rgb(9.495544%, 9.140015%, 36.740112%)" offset="0.457031"/><stop stop-opacity="1" stop-color="rgb(9.577942%, 9.217834%, 37.054443%)" offset="0.460938"/><stop stop-opacity="1" stop-color="rgb(9.658813%, 9.295654%, 37.367249%)" offset="0.464844"/><stop stop-opacity="1" stop-color="rgb(9.739685%, 9.375%, 37.68158%)" offset="0.46875"/><stop stop-opacity="1" stop-color="rgb(9.820557%, 9.45282%, 37.995911%)" offset="0.472656"/><stop stop-opacity="1" stop-color="rgb(9.902954%, 9.53064%, 38.310242%)" offset="0.476562"/><stop stop-opacity="1" stop-color="rgb(9.983826%, 9.608459%, 38.624573%)" offset="0.480469"/><stop stop-opacity="1" stop-color="rgb(10.064697%, 9.686279%, 38.938904%)" offset="0.484375"/><stop stop-opacity="1" stop-color="rgb(10.145569%, 9.764099%, 39.251709%)" offset="0.488281"/><stop stop-opacity="1" stop-color="rgb(10.22644%, 9.843445%, 39.56604%)" offset="0.492188"/><stop stop-opacity="1" stop-color="rgb(10.307312%, 9.921265%, 39.880371%)" offset="0.496094"/><stop stop-opacity="1" stop-color="rgb(10.389709%, 9.999084%, 40.194702%)" offset="0.5"/><stop stop-opacity="1" stop-color="rgb(10.470581%, 10.076904%, 40.507507%)" offset="0.503906"/><stop stop-opacity="1" stop-color="rgb(10.551453%, 10.15625%, 40.821838%)" offset="0.507812"/><stop stop-opacity="1" stop-color="rgb(10.632324%, 10.23407%, 41.136169%)" offset="0.511719"/><stop stop-opacity="1" stop-color="rgb(10.713196%, 10.31189%, 41.4505%)" offset="0.515625"/><stop stop-opacity="1" stop-color="rgb(10.794067%, 10.389709%, 41.763306%)" offset="0.519531"/><stop stop-opacity="1" stop-color="rgb(10.876465%, 10.467529%, 42.077637%)" offset="0.523438"/><stop stop-opacity="1" stop-color="rgb(10.957336%, 10.545349%, 42.391968%)" offset="0.527344"/><stop stop-opacity="1" stop-color="rgb(11.038208%, 10.624695%, 42.706299%)" offset="0.53125"/><stop stop-opacity="1" stop-color="rgb(11.11908%, 10.702515%, 43.02063%)" offset="0.535156"/><stop stop-opacity="1" stop-color="rgb(11.201477%, 10.780334%, 43.334961%)" offset="0.539062"/><stop stop-opacity="1" stop-color="rgb(11.282349%, 10.858154%, 43.647766%)" offset="0.542969"/><stop stop-opacity="1" stop-color="rgb(11.36322%, 10.9375%, 43.962097%)" offset="0.546875"/><stop stop-opacity="1" stop-color="rgb(11.444092%, 11.01532%, 44.276428%)" offset="0.550781"/><stop stop-opacity="1" stop-color="rgb(11.524963%, 11.09314%, 44.590759%)" offset="0.554688"/><stop stop-opacity="1" stop-color="rgb(11.605835%, 11.170959%, 44.903564%)" offset="0.558594"/><stop stop-opacity="1" stop-color="rgb(11.688232%, 11.248779%, 45.217896%)" offset="0.5625"/><stop stop-opacity="1" stop-color="rgb(11.769104%, 11.326599%, 45.532227%)" offset="0.566406"/><stop stop-opacity="1" stop-color="rgb(11.849976%, 11.405945%, 45.846558%)" offset="0.570312"/><stop stop-opacity="1" stop-color="rgb(11.930847%, 11.483765%, 46.160889%)" offset="0.574219"/><stop stop-opacity="1" stop-color="rgb(12.013245%, 11.561584%, 46.47522%)" offset="0.578125"/><stop stop-opacity="1" stop-color="rgb(12.094116%, 11.639404%, 46.788025%)" offset="0.582031"/><stop stop-opacity="1" stop-color="rgb(12.174988%, 11.71875%, 47.102356%)" offset="0.585938"/><stop stop-opacity="1" stop-color="rgb(12.255859%, 11.79657%, 47.416687%)" offset="0.589844"/><stop stop-opacity="1" stop-color="rgb(12.336731%, 11.87439%, 47.731018%)" offset="0.59375"/><stop stop-opacity="1" stop-color="rgb(12.417603%, 11.952209%, 48.043823%)" offset="0.597656"/><stop stop-opacity="1" stop-color="rgb(12.5%, 12.030029%, 48.358154%)" offset="0.601562"/><stop stop-opacity="1" stop-color="rgb(12.580872%, 12.107849%, 48.672485%)" offset="0.605469"/><stop stop-opacity="1" stop-color="rgb(12.661743%, 12.187195%, 48.986816%)" offset="0.609375"/><stop stop-opacity="1" stop-color="rgb(12.742615%, 12.265015%, 49.301147%)" offset="0.613281"/><stop stop-opacity="1" stop-color="rgb(12.825012%, 12.342834%, 49.615479%)" offset="0.617188"/><stop stop-opacity="1" stop-color="rgb(12.905884%, 12.420654%, 49.928284%)" offset="0.621094"/><stop stop-opacity="1" stop-color="rgb(12.986755%, 12.5%, 50.242615%)" offset="0.625"/><stop stop-opacity="1" stop-color="rgb(13.067627%, 12.57782%, 50.556946%)" offset="0.628906"/><stop stop-opacity="1" stop-color="rgb(13.148499%, 12.65564%, 50.871277%)" offset="0.632812"/><stop stop-opacity="1" stop-color="rgb(13.22937%, 12.733459%, 51.184082%)" offset="0.636719"/><stop stop-opacity="1" stop-color="rgb(13.311768%, 12.811279%, 51.498413%)" offset="0.640625"/><stop stop-opacity="1" stop-color="rgb(13.392639%, 12.889099%, 51.812744%)" offset="0.644531"/><stop stop-opacity="1" stop-color="rgb(13.473511%, 12.968445%, 52.127075%)" offset="0.648438"/><stop stop-opacity="1" stop-color="rgb(13.554382%, 13.046265%, 52.441406%)" offset="0.652344"/><stop stop-opacity="1" stop-color="rgb(13.63678%, 13.124084%, 52.755737%)" offset="0.65625"/><stop stop-opacity="1" stop-color="rgb(13.717651%, 13.201904%, 53.068542%)" offset="0.660156"/><stop stop-opacity="1" stop-color="rgb(13.798523%, 13.28125%, 53.382874%)" offset="0.664062"/><stop stop-opacity="1" stop-color="rgb(13.879395%, 13.35907%, 53.697205%)" offset="0.667969"/><stop stop-opacity="1" stop-color="rgb(13.960266%, 13.43689%, 54.011536%)" offset="0.671875"/><stop stop-opacity="1" stop-color="rgb(14.041138%, 13.514709%, 54.324341%)" offset="0.675781"/><stop stop-opacity="1" stop-color="rgb(14.123535%, 13.592529%, 54.638672%)" offset="0.679688"/><stop stop-opacity="1" stop-color="rgb(14.204407%, 13.670349%, 54.953003%)" offset="0.683594"/><stop stop-opacity="1" stop-color="rgb(14.285278%, 13.749695%, 55.267334%)" offset="0.6875"/><stop stop-opacity="1" stop-color="rgb(14.36615%, 13.827515%, 55.581665%)" offset="0.691406"/><stop stop-opacity="1" stop-color="rgb(14.448547%, 13.905334%, 55.895996%)" offset="0.695312"/><stop stop-opacity="1" stop-color="rgb(14.529419%, 13.983154%, 56.208801%)" offset="0.699219"/><stop stop-opacity="1" stop-color="rgb(14.610291%, 14.0625%, 56.523132%)" offset="0.703125"/><stop stop-opacity="1" stop-color="rgb(14.691162%, 14.14032%, 56.837463%)" offset="0.707031"/><stop stop-opacity="1" stop-color="rgb(14.772034%, 14.21814%, 57.151794%)" offset="0.710938"/><stop stop-opacity="1" stop-color="rgb(14.852905%, 14.295959%, 57.4646%)" offset="0.714844"/><stop stop-opacity="1" stop-color="rgb(14.935303%, 14.373779%, 57.778931%)" offset="0.71875"/><stop stop-opacity="1" stop-color="rgb(15.016174%, 14.451599%, 58.093262%)" offset="0.722656"/><stop stop-opacity="1" stop-color="rgb(15.097046%, 14.530945%, 58.407593%)" offset="0.726562"/><stop stop-opacity="1" stop-color="rgb(15.177917%, 14.608765%, 58.721924%)" offset="0.730469"/><stop stop-opacity="1" stop-color="rgb(15.258789%, 14.686584%, 59.036255%)" offset="0.734375"/><stop stop-opacity="1" stop-color="rgb(15.339661%, 14.764404%, 59.34906%)" offset="0.738281"/><stop stop-opacity="1" stop-color="rgb(15.422058%, 14.84375%, 59.663391%)" offset="0.742188"/><stop stop-opacity="1" stop-color="rgb(15.50293%, 14.92157%, 59.977722%)" offset="0.746094"/><stop stop-opacity="1" stop-color="rgb(15.583801%, 14.99939%, 60.292053%)" offset="0.75"/><stop stop-opacity="1" stop-color="rgb(15.664673%, 15.077209%, 60.604858%)" offset="0.753906"/><stop stop-opacity="1" stop-color="rgb(15.74707%, 15.155029%, 60.919189%)" offset="0.757812"/><stop stop-opacity="1" stop-color="rgb(15.827942%, 15.232849%, 61.233521%)" offset="0.761719"/><stop stop-opacity="1" stop-color="rgb(15.908813%, 15.312195%, 61.547852%)" offset="0.765625"/><stop stop-opacity="1" stop-color="rgb(15.989685%, 15.390015%, 61.862183%)" offset="0.769531"/><stop stop-opacity="1" stop-color="rgb(16.070557%, 15.467834%, 62.176514%)" offset="0.773438"/><stop stop-opacity="1" stop-color="rgb(16.151428%, 15.545654%, 62.489319%)" offset="0.777344"/><stop stop-opacity="1" stop-color="rgb(16.233826%, 15.625%, 62.80365%)" offset="0.78125"/><stop stop-opacity="1" stop-color="rgb(16.314697%, 15.70282%, 63.117981%)" offset="0.785156"/><stop stop-opacity="1" stop-color="rgb(16.395569%, 15.78064%, 63.432312%)" offset="0.789062"/><stop stop-opacity="1" stop-color="rgb(16.47644%, 15.858459%, 63.745117%)" offset="0.792969"/><stop stop-opacity="1" stop-color="rgb(16.558838%, 15.936279%, 64.059448%)" offset="0.796875"/><stop stop-opacity="1" stop-color="rgb(16.639709%, 16.014099%, 64.373779%)" offset="0.800781"/><stop stop-opacity="1" stop-color="rgb(16.720581%, 16.093445%, 64.68811%)" offset="0.804688"/><stop stop-opacity="1" stop-color="rgb(16.801453%, 16.171265%, 65.002441%)" offset="0.808594"/><stop stop-opacity="1" stop-color="rgb(16.882324%, 16.249084%, 65.316772%)" offset="0.8125"/><stop stop-opacity="1" stop-color="rgb(16.963196%, 16.326904%, 65.629578%)" offset="0.816406"/><stop stop-opacity="1" stop-color="rgb(17.045593%, 16.40625%, 65.943909%)" offset="0.820312"/><stop stop-opacity="1" stop-color="rgb(17.126465%, 16.48407%, 66.25824%)" offset="0.824219"/><stop stop-opacity="1" stop-color="rgb(17.207336%, 16.56189%, 66.572571%)" offset="0.828125"/><stop stop-opacity="1" stop-color="rgb(17.288208%, 16.639709%, 66.885376%)" offset="0.832031"/><stop stop-opacity="1" stop-color="rgb(17.370605%, 16.717529%, 67.199707%)" offset="0.835938"/><stop stop-opacity="1" stop-color="rgb(17.451477%, 16.795349%, 67.514038%)" offset="0.839844"/><stop stop-opacity="1" stop-color="rgb(17.532349%, 16.874695%, 67.828369%)" offset="0.84375"/><stop stop-opacity="1" stop-color="rgb(17.61322%, 16.952515%, 68.1427%)" offset="0.847656"/><stop stop-opacity="1" stop-color="rgb(17.694092%, 17.030334%, 68.457031%)" offset="0.851562"/><stop stop-opacity="1" stop-color="rgb(17.774963%, 17.108154%, 68.769836%)" offset="0.855469"/><stop stop-opacity="1" stop-color="rgb(17.857361%, 17.1875%, 69.084167%)" offset="0.859375"/><stop stop-opacity="1" stop-color="rgb(17.938232%, 17.26532%, 69.398499%)" offset="0.863281"/><stop stop-opacity="1" stop-color="rgb(18.019104%, 17.34314%, 69.71283%)" offset="0.867188"/><stop stop-opacity="1" stop-color="rgb(18.099976%, 17.420959%, 70.025635%)" offset="0.871094"/><stop stop-opacity="1" stop-color="rgb(18.182373%, 17.498779%, 70.339966%)" offset="0.875"/><stop stop-opacity="1" stop-color="rgb(18.263245%, 17.576599%, 70.654297%)" offset="0.878906"/><stop stop-opacity="1" stop-color="rgb(18.344116%, 17.655945%, 70.968628%)" offset="0.882812"/><stop stop-opacity="1" stop-color="rgb(18.424988%, 17.733765%, 71.282959%)" offset="0.886719"/><stop stop-opacity="1" stop-color="rgb(18.505859%, 17.811584%, 71.59729%)" offset="0.890625"/><stop stop-opacity="1" stop-color="rgb(18.586731%, 17.889404%, 71.910095%)" offset="0.894531"/><stop stop-opacity="1" stop-color="rgb(18.669128%, 17.96875%, 72.224426%)" offset="0.898438"/><stop stop-opacity="1" stop-color="rgb(18.75%, 18.04657%, 72.538757%)" offset="0.902344"/><stop stop-opacity="1" stop-color="rgb(18.830872%, 18.12439%, 72.853088%)" offset="0.90625"/><stop stop-opacity="1" stop-color="rgb(18.911743%, 18.202209%, 73.165894%)" offset="0.910156"/><stop stop-opacity="1" stop-color="rgb(18.994141%, 18.280029%, 73.480225%)" offset="0.914062"/><stop stop-opacity="1" stop-color="rgb(19.075012%, 18.357849%, 73.794556%)" offset="0.917969"/><stop stop-opacity="1" stop-color="rgb(19.155884%, 18.437195%, 74.108887%)" offset="0.921875"/><stop stop-opacity="1" stop-color="rgb(19.236755%, 18.515015%, 74.423218%)" offset="0.925781"/><stop stop-opacity="1" stop-color="rgb(19.317627%, 18.592834%, 74.737549%)" offset="0.929688"/><stop stop-opacity="1" stop-color="rgb(19.398499%, 18.670654%, 75.050354%)" offset="0.933594"/><stop stop-opacity="1" stop-color="rgb(19.480896%, 18.75%, 75.364685%)" offset="0.9375"/><stop stop-opacity="1" stop-color="rgb(19.561768%, 18.82782%, 75.679016%)" offset="0.941406"/><stop stop-opacity="1" stop-color="rgb(19.642639%, 18.90564%, 75.993347%)" offset="0.945312"/><stop stop-opacity="1" stop-color="rgb(19.723511%, 18.983459%, 76.306152%)" offset="0.949219"/><stop stop-opacity="1" stop-color="rgb(19.805908%, 19.061279%, 76.620483%)" offset="0.953125"/><stop stop-opacity="1" stop-color="rgb(19.88678%, 19.139099%, 76.934814%)" offset="0.957031"/><stop stop-opacity="1" stop-color="rgb(19.967651%, 19.218445%, 77.249146%)" offset="0.960938"/><stop stop-opacity="1" stop-color="rgb(20.048523%, 19.296265%, 77.563477%)" offset="0.964844"/><stop stop-opacity="1" stop-color="rgb(20.129395%, 19.374084%, 77.877808%)" offset="0.96875"/><stop stop-opacity="1" stop-color="rgb(20.210266%, 19.451904%, 78.190613%)" offset="0.972656"/><stop stop-opacity="1" stop-color="rgb(20.292664%, 19.53125%, 78.504944%)" offset="0.976562"/><stop stop-opacity="1" stop-color="rgb(20.373535%, 19.60907%, 78.819275%)" offset="0.980469"/><stop stop-opacity="1" stop-color="rgb(20.454407%, 19.68689%, 79.133606%)" offset="0.984375"/><stop stop-opacity="1" stop-color="rgb(20.535278%, 19.764709%, 79.446411%)" offset="0.988281"/><stop stop-opacity="1" stop-color="rgb(20.61615%, 19.842529%, 79.760742%)" offset="0.992188"/><stop stop-opacity="1" stop-color="rgb(20.697021%, 19.920349%, 80.075073%)" offset="0.996094"/><stop stop-opacity="1" stop-color="rgb(20.779419%, 19.999695%, 80.389404%)" offset="1"/></linearGradient><clipPath id="e47c14f979"><rect x="0" width="375" y="0" height="375"/></clipPath><clipPath id="5f1a032226"><path d="M 13 0.480469 L 362 0.480469 L 362 159 L 13 159 Z M 13 0.480469 " clip-rule="nonzero"/></clipPath><clipPath id="dce413f199"><rect x="0" width="349" y="0" height="159"/></clipPath><clipPath id="1bb8f9ba94"><path d="M 115 103.5625 L 265 103.5625 L 265 198 L 115 198 Z M 115 103.5625 " clip-rule="nonzero"/></clipPath><clipPath id="343713f199"><path d="M 175.574219 122.308594 L 199.410156 122.308594 L 199.410156 144.886719 L 175.574219 144.886719 Z M 175.574219 122.308594 " clip-rule="nonzero"/></clipPath><clipPath id="d67ee13e32"><path d="M 131 287 L 246 287 L 246 317.28125 L 131 317.28125 Z M 131 287 " clip-rule="nonzero"/></clipPath><clipPath id="c94105f6a6"><rect x="0" width="115" y="0" height="31"/></clipPath><clipPath id="520ec03d79"><rect x="0" width="375" y="0" height="318"/></clipPath></defs><g clip-path="url(#2b33ec66e6)"><g transform="matrix(1, 0, 0, 1, 0, 0)"><g clip-path="url(#e47c14f979)"><g clip-path="url(#600699bd60)"><g clip-path="url(#69d64ccfa1)"><rect x="-82.5" fill="url(#62f1672c96)" width="540" height="539.999987" y="-82.499998"/></g></g></g></g></g><g transform="matrix(1, 0, 0, 1, 0, 30)"><g clip-path="url(#520ec03d79)"><g clip-path="url(#5f1a032226)"><g transform="matrix(1, 0, 0, 1, 13, 0)"><g clip-path="url(#dce413f199)"><g fill="#ffffff" fill-opacity="1"><g transform="translate(43.91247, 155.835333)"><g><path d="M 0.40625 -1.625 L -37.65625 -10.96875 L -35.078125 -21.53125 C -34.703125 -23.050781 -33.859375 -24.207031 -32.546875 -25 C -31.234375 -25.789062 -29.816406 -26.003906 -28.296875 -25.640625 L -13.5 -22 C -11.976562 -21.625 -10.820312 -20.78125 -10.03125 -19.46875 C -9.238281 -18.164062 -9.03125 -16.753906 -9.40625 -15.234375 L -10.3125 -11.53125 L 2.078125 -8.484375 Z M -16.078125 -12.9375 L -15.796875 -14.078125 C -15.710938 -14.398438 -15.753906 -14.695312 -15.921875 -14.96875 C -16.085938 -15.25 -16.332031 -15.425781 -16.65625 -15.5 L -28.578125 -18.421875 C -28.898438 -18.503906 -29.195312 -18.460938 -29.46875 -18.296875 C -29.738281 -18.128906 -29.914062 -17.882812 -30 -17.5625 L -30.28125 -16.421875 Z M -16.078125 -12.9375 "/></g></g></g><g fill="#ffffff" fill-opacity="1"><g transform="translate(50.177629, 132.397434)"><g><path d="M 0.671875 -1.53125 L -35.1875 -17.328125 L -29.203125 -30.90625 L -23.765625 -28.515625 L -26.90625 -21.40625 L -17.234375 -17.140625 L -14.984375 -22.203125 L -9.546875 -19.8125 L -11.796875 -14.75 L -1.921875 -10.390625 L 1.21875 -17.5 L 6.65625 -15.109375 Z M 0.671875 -1.53125 "/></g></g></g><g fill="#ffffff" fill-opacity="1"><g transform="translate(59.23215, 112.550564)"><g><path d="M 0.921875 -1.390625 L -31.65625 -23.171875 L -28 -28.625 L -12.015625 -21.3125 L -26.453125 -30.953125 L -22.5 -36.859375 L 10.078125 -15.078125 L 6.390625 -9.546875 L -9.5625 -16.921875 L 4.859375 -7.265625 Z M 0.921875 -1.390625 "/></g></g></g><g fill="#ffffff" fill-opacity="1"><g transform="translate(72.978027, 92.709553)"><g><path d="M 1.171875 -1.203125 L -26.90625 -28.546875 L -19.328125 -36.328125 C -18.234375 -37.453125 -16.921875 -38.023438 -15.390625 -38.046875 C -13.859375 -38.066406 -12.53125 -37.53125 -11.40625 -36.4375 L 8.65625 -16.90625 C 9.769531 -15.8125 10.335938 -14.5 10.359375 -12.96875 C 10.378906 -11.4375 9.84375 -10.109375 8.75 -8.984375 Z M 1.84375 -10.390625 L 2.65625 -11.234375 C 2.894531 -11.472656 3.007812 -11.75 3 -12.0625 C 3 -12.382812 2.878906 -12.660156 2.640625 -12.890625 L -15.296875 -30.359375 C -15.535156 -30.585938 -15.8125 -30.695312 -16.125 -30.6875 C -16.4375 -30.6875 -16.710938 -30.566406 -16.953125 -30.328125 L -17.765625 -29.484375 Z M 1.84375 -10.390625 "/></g></g></g><g fill="#ffffff" fill-opacity="1"><g transform="translate(90.665985, 75.57869)"><g><path d="M 1.328125 -1.015625 L -22.3125 -32.265625 L -16.671875 -36.515625 L 6.96875 -5.265625 Z M 1.328125 -1.015625 "/></g></g></g><g fill="#ffffff" fill-opacity="1"><g transform="translate(102.846358, 66.377514)"><g><path d="M 1.46875 -0.796875 L -17.203125 -35.25 L -7.640625 -40.4375 C -6.265625 -41.175781 -4.84375 -41.328125 -3.375 -40.890625 C -1.90625 -40.453125 -0.796875 -39.546875 -0.046875 -38.171875 L 13.28125 -13.5625 C 14.03125 -12.1875 14.1875 -10.765625 13.75 -9.296875 C 13.3125 -7.828125 12.40625 -6.722656 11.03125 -5.984375 Z M 4.84375 -9.375 L 5.875 -9.9375 C 6.175781 -10.09375 6.367188 -10.320312 6.453125 -10.625 C 6.535156 -10.9375 6.5 -11.238281 6.34375 -11.53125 L -5.578125 -33.546875 C -5.734375 -33.835938 -5.960938 -34.023438 -6.265625 -34.109375 C -6.566406 -34.191406 -6.867188 -34.15625 -7.171875 -34 L -8.203125 -33.4375 Z M 4.84375 -9.375 "/></g></g></g><g fill="#ffffff" fill-opacity="1"><g transform="translate(124.829799, 55.283479)"><g><path d="M 1.578125 -0.5625 L -11.6875 -37.4375 L -5.046875 -39.828125 L 8.21875 -2.953125 Z M 1.578125 -0.5625 "/></g></g></g><g fill="#ffffff" fill-opacity="1"><g transform="translate(139.168281, 50.112777)"><g><path d="M 1.640625 -0.328125 L -5.875 -38.78125 L 1 -40.109375 L 3.84375 -25.5625 L 3.6875 -40.640625 L 10.5 -41.96875 L 10.6875 -25.015625 L 18.25 -3.5625 L 11.203125 -2.1875 L 4.59375 -21.71875 L 8.515625 -1.65625 Z M 1.640625 -0.328125 "/></g></g></g><g fill="#ffffff" fill-opacity="1"><g transform="translate(163.348483, 45.811859)"><g><path d="M 1.671875 -0.015625 L 1.375 -33.609375 C 1.363281 -35.171875 1.894531 -36.5 2.96875 -37.59375 C 4.039062 -38.6875 5.363281 -39.238281 6.9375 -39.25 L 12.203125 -39.296875 C 13.765625 -39.304688 15.09375 -38.773438 16.1875 -37.703125 C 17.28125 -36.628906 17.832031 -35.3125 17.84375 -33.75 L 18.140625 -0.15625 L 11.078125 -0.09375 L 10.96875 -12.578125 L 8.625 -12.5625 L 8.734375 -0.078125 Z M 8.578125 -18.5 L 10.921875 -18.515625 L 10.796875 -32.234375 C 10.796875 -32.566406 10.679688 -32.84375 10.453125 -33.0625 C 10.222656 -33.289062 9.941406 -33.40625 9.609375 -33.40625 C 9.273438 -33.394531 9 -33.273438 8.78125 -33.046875 C 8.5625 -32.828125 8.453125 -32.550781 8.453125 -32.21875 Z M 8.578125 -18.5 "/></g></g></g><g fill="#ffffff" fill-opacity="1"><g transform="translate(187.485197, 45.993704)"><g><path d="M 1.640625 0.296875 L 8.421875 -38.296875 L 14.890625 -37.171875 L 14.640625 -19.59375 L 17.640625 -36.6875 L 24.640625 -35.453125 L 17.859375 3.140625 L 11.3125 1.984375 L 11.609375 -15.578125 L 8.609375 1.515625 Z M 1.640625 0.296875 "/></g></g></g><g fill="#ffffff" fill-opacity="1"><g transform="translate(211.514666, 50.889451)"><g/></g></g><g fill="#ffffff" fill-opacity="1"><g transform="translate(227.624085, 56.515745)"><g><path d="M 4.40625 2.34375 L 19.140625 -34.21875 L 25.359375 -30.90625 L 14.640625 -6.546875 L 28.875 -29.03125 L 35.09375 -25.734375 L 13 6.90625 Z M 4.40625 2.34375 "/></g></g></g><g fill="#ffffff" fill-opacity="1"><g transform="translate(248.704907, 68.163108)"><g><path d="M 5.703125 4.53125 C 4.472656 3.550781 3.769531 2.300781 3.59375 0.78125 C 3.414062 -0.738281 3.816406 -2.109375 4.796875 -3.328125 L 22.203125 -25.265625 C 23.171875 -26.484375 24.414062 -27.179688 25.9375 -27.359375 C 27.457031 -27.535156 28.832031 -27.132812 30.0625 -26.15625 L 34.1875 -22.890625 C 35.40625 -21.910156 36.101562 -20.660156 36.28125 -19.140625 C 36.457031 -17.617188 36.0625 -16.25 35.09375 -15.03125 L 17.6875 6.90625 C 16.707031 8.125 15.457031 8.820312 13.9375 9 C 12.414062 9.175781 11.046875 8.773438 9.828125 7.796875 Z M 11.453125 1.5 C 11.710938 1.707031 12 1.796875 12.3125 1.765625 C 12.625 1.734375 12.882812 1.585938 13.09375 1.328125 L 28.65625 -18.28125 C 28.863281 -18.539062 28.953125 -18.828125 28.921875 -19.140625 C 28.890625 -19.460938 28.742188 -19.726562 28.484375 -19.9375 C 28.210938 -20.144531 27.921875 -20.226562 27.609375 -20.1875 C 27.296875 -20.144531 27.035156 -19.992188 26.828125 -19.734375 L 11.265625 -0.125 C 11.054688 0.132812 10.96875 0.414062 11 0.71875 C 11.03125 1.03125 11.179688 1.289062 11.453125 1.5 Z M 11.453125 1.5 "/></g></g></g><g fill="#ffffff" fill-opacity="1"><g transform="translate(267.356008, 83.45004)"><g><path d="M 1.09375 1.265625 L 30.671875 -24.453125 L 35.265625 -19.171875 L 24.078125 -9.4375 L 37.078125 -17.09375 L 41.625 -11.859375 L 27.015625 -3.234375 L 12.203125 14.03125 L 7.5 8.625 L 21.109375 -6.859375 L 5.6875 6.546875 Z M 1.09375 1.265625 "/></g></g></g><g fill="#ffffff" fill-opacity="1"><g transform="translate(283.153572, 102.254199)"><g><path d="M 0.84375 1.4375 L 29.796875 -15.59375 C 31.148438 -16.382812 32.566406 -16.582031 34.046875 -16.1875 C 35.535156 -15.800781 36.675781 -14.929688 37.46875 -13.578125 L 40.140625 -9.046875 C 40.929688 -7.691406 41.132812 -6.273438 40.75 -4.796875 C 40.363281 -3.316406 39.492188 -2.179688 38.140625 -1.390625 L 9.1875 15.640625 L 5.609375 9.546875 L 16.375 3.21875 L 15.1875 1.203125 L 4.421875 7.53125 Z M 20.296875 -1.8125 L 21.484375 0.203125 L 33.3125 -6.75 C 33.601562 -6.914062 33.789062 -7.148438 33.875 -7.453125 C 33.957031 -7.765625 33.910156 -8.0625 33.734375 -8.34375 C 33.566406 -8.632812 33.328125 -8.816406 33.015625 -8.890625 C 32.710938 -8.972656 32.414062 -8.929688 32.125 -8.765625 Z M 20.296875 -1.8125 "/></g></g></g><g fill="#ffffff" fill-opacity="1"><g transform="translate(295.027663, 123.36474)"><g><path d="M 2.234375 6.03125 C 1.691406 4.570312 1.738281 3.144531 2.375 1.75 C 3.019531 0.363281 4.078125 -0.597656 5.546875 -1.140625 L 12.90625 -3.875 L 15.34375 2.734375 L 9.40625 4.9375 C 9.09375 5.050781 8.867188 5.25 8.734375 5.53125 C 8.597656 5.820312 8.585938 6.125 8.703125 6.4375 C 8.828125 6.757812 9.035156 6.984375 9.328125 7.109375 C 9.617188 7.242188 9.921875 7.253906 10.234375 7.140625 L 15.4375 5.21875 C 15.988281 5.007812 16.414062 4.769531 16.71875 4.5 C 17.019531 4.226562 17.234375 3.789062 17.359375 3.1875 L 18.90625 -2.625 C 19.21875 -4.019531 19.828125 -5.140625 20.734375 -5.984375 C 21.640625 -6.835938 22.863281 -7.550781 24.40625 -8.125 L 31.796875 -10.859375 C 33.265625 -11.398438 34.691406 -11.351562 36.078125 -10.71875 C 37.472656 -10.082031 38.441406 -9.035156 38.984375 -7.578125 L 40.8125 -2.640625 C 41.351562 -1.171875 41.300781 0.257812 40.65625 1.65625 C 40.019531 3.050781 38.96875 4.019531 37.5 4.5625 L 30.15625 7.28125 L 27.71875 0.671875 L 33.703125 -1.546875 C 34.015625 -1.660156 34.234375 -1.859375 34.359375 -2.140625 C 34.492188 -2.429688 34.5 -2.738281 34.375 -3.0625 C 34.257812 -3.375 34.054688 -3.59375 33.765625 -3.71875 C 33.484375 -3.851562 33.1875 -3.863281 32.875 -3.75 L 27.515625 -1.765625 C 26.890625 -1.535156 26.425781 -1.234375 26.125 -0.859375 C 25.832031 -0.484375 25.625 -0.0351562 25.5 0.484375 L 24.078125 6.1875 C 23.804688 7.488281 23.226562 8.554688 22.34375 9.390625 C 21.457031 10.234375 20.398438 10.882812 19.171875 11.34375 L 11.25 14.28125 C 9.78125 14.820312 8.347656 14.769531 6.953125 14.125 C 5.566406 13.488281 4.601562 12.4375 4.0625 10.96875 Z M 2.234375 6.03125 "/></g></g></g><g fill="#ffffff" fill-opacity="1"><g transform="translate(302.425157, 145.186258)"><g><path d="M 0.34375 1.640625 L 38.671875 -6.5 L 40.140625 0.40625 L 1.8125 8.546875 Z M 0.34375 1.640625 "/></g></g></g></g></g></g><path fill="#e2a9f1" d="M 221.65625 204.671875 L 244.285156 165.476562 C 246.445312 161.738281 250.4375 159.433594 254.753906 159.433594 C 264.0625 159.433594 269.878906 169.507812 265.226562 177.566406 L 239.691406 221.796875 C 216.492188 261.976562 158.5 261.976562 135.300781 221.796875 L 109.761719 177.566406 C 105.109375 169.507812 110.925781 159.433594 120.234375 159.433594 C 124.550781 159.433594 128.542969 161.738281 130.703125 165.476562 L 153.332031 204.671875 C 168.515625 230.96875 206.476562 230.96875 221.65625 204.671875 " fill-opacity="1" fill-rule="nonzero"/><g clip-path="url(#1bb8f9ba94)"><path fill="#e2a9f1" d="M 238.667969 145.597656 L 238.667969 136.753906 L 264.324219 129.941406 L 176.519531 103.550781 L 115.667969 125.539062 L 156.753906 135.15625 L 156.753906 151.515625 C 154.875 155.617188 153.820312 160.175781 153.820312 164.984375 C 153.820312 182.882812 168.328125 197.394531 186.230469 197.394531 C 204.128906 197.394531 218.640625 182.882812 218.640625 164.984375 C 218.640625 160.847656 217.855469 156.898438 216.441406 153.261719 L 216.441406 142.652344 L 236.667969 137.285156 L 236.667969 145.597656 C 235.152344 146.695312 234.039062 150.203125 234.039062 154.367188 C 234.039062 159.410156 235.664062 163.496094 237.667969 163.496094 C 239.671875 163.496094 241.292969 159.410156 241.292969 154.367188 C 241.292969 150.203125 240.183594 146.695312 238.667969 145.597656 " fill-opacity="1" fill-rule="nonzero"/></g><path fill="#e2a9f1" d="M 272.191406 204.445312 C 243.617188 245.1875 214.027344 255.570312 199.234375 258.167969 C 221.179688 256.539062 243.433594 255.085938 285.628906 222.558594 C 333.984375 185.285156 355.925781 219.539062 355.925781 219.539062 L 347.070312 192.335938 L 374.953125 184.613281 C 374.953125 184.613281 312.492188 147 272.191406 204.445312 " fill-opacity="1" fill-rule="nonzero"/><path fill="#e2a9f1" d="M 102.792969 204.445312 C 131.371094 245.183594 160.957031 255.570312 175.753906 258.164062 C 153.808594 256.539062 131.558594 255.085938 89.359375 222.558594 C 41.003906 185.28125 19.0625 219.535156 19.0625 219.535156 L 27.914062 192.332031 L 0.03125 184.613281 C 0.03125 184.613281 62.496094 147 102.792969 204.445312 " fill-opacity="1" fill-rule="nonzero"/><g clip-path="url(#343713f199)"><path fill="#ffffff" d="M 187.492188 139.78125 L 194.859375 145.144531 L 192.039062 136.484375 L 199.40625 131.242188 L 190.371094 131.242188 L 187.492188 122.308594 L 184.613281 131.242188 L 175.578125 131.242188 L 182.945312 136.484375 L 180.136719 145.144531 Z M 187.492188 139.78125 " fill-opacity="1" fill-rule="nonzero"/></g><g clip-path="url(#d67ee13e32)"><g transform="matrix(1, 0, 0, 1, 131, 287)"><g clip-path="url(#c94105f6a6)"><g fill="#ffffff" fill-opacity="1"><g transform="translate(1.16933, 23.414634)"><g><path d="M 0.90625 0 L 0.90625 -21.21875 L 6.796875 -21.21875 C 7.640625 -21.21875 8.351562 -20.921875 8.9375 -20.328125 C 9.53125 -19.742188 9.828125 -19.03125 9.828125 -18.1875 L 9.828125 -3.03125 C 9.828125 -2.1875 9.53125 -1.46875 8.9375 -0.875 C 8.351562 -0.289062 7.640625 0 6.796875 0 Z M 4.734375 -3.21875 L 5.359375 -3.21875 C 5.546875 -3.21875 5.695312 -3.273438 5.8125 -3.390625 C 5.9375 -3.515625 6 -3.664062 6 -3.84375 L 6 -17.40625 C 6 -17.582031 5.9375 -17.726562 5.8125 -17.84375 C 5.695312 -17.96875 5.546875 -18.03125 5.359375 -18.03125 L 4.734375 -18.03125 Z M 4.734375 -3.21875 "/></g></g></g><g fill="#ffffff" fill-opacity="1"><g transform="translate(14.352441, 23.414634)"><g><path d="M 0.90625 0 L 0.90625 -21.21875 L 4.734375 -21.21875 L 4.734375 0 Z M 0.90625 0 "/></g></g></g><g fill="#ffffff" fill-opacity="1"><g transform="translate(22.444375, 23.414634)"><g/></g></g><g fill="#ffffff" fill-opacity="1"><g transform="translate(31.566665, 23.414634)"><g><path d="M 0.90625 0 L 0.90625 -21.21875 L 8.9375 -21.21875 L 8.9375 -18 L 4.734375 -18 L 4.734375 -12.28125 L 7.734375 -12.28125 L 7.734375 -9.0625 L 4.734375 -9.0625 L 4.734375 -3.21875 L 8.9375 -3.21875 L 8.9375 0 Z M 0.90625 0 "/></g></g></g><g fill="#ffffff" fill-opacity="1"><g transform="translate(43.416368, 23.414634)"><g><path d="M 0.90625 0 L 0.90625 -21.21875 L 6.796875 -21.21875 C 7.640625 -21.21875 8.351562 -20.921875 8.9375 -20.328125 C 9.53125 -19.742188 9.828125 -19.03125 9.828125 -18.1875 L 9.828125 -11.03125 C 9.785156 -10.507812 9.609375 -10.035156 9.296875 -9.609375 C 8.992188 -9.179688 8.613281 -8.867188 8.15625 -8.671875 C 8.613281 -8.453125 8.992188 -8.132812 9.296875 -7.71875 C 9.609375 -7.300781 9.785156 -6.832031 9.828125 -6.3125 L 9.828125 0 L 6 0 L 6 -6.90625 L 4.734375 -6.90625 L 4.734375 0 Z M 4.734375 -10.125 L 5.359375 -10.125 C 5.546875 -10.125 5.695312 -10.179688 5.8125 -10.296875 C 5.9375 -10.421875 6 -10.578125 6 -10.765625 L 6 -17.40625 C 6 -17.582031 5.9375 -17.726562 5.8125 -17.84375 C 5.695312 -17.96875 5.546875 -18.03125 5.359375 -18.03125 L 4.734375 -18.03125 Z M 4.734375 -10.125 "/></g></g></g><g fill="#ffffff" fill-opacity="1"><g transform="translate(56.599479, 23.414634)"><g><path d="M 0.90625 0 L 0.90625 -18.1875 C 0.90625 -19.03125 1.195312 -19.742188 1.78125 -20.328125 C 2.375 -20.921875 3.09375 -21.21875 3.9375 -21.21875 L 6.796875 -21.21875 C 7.640625 -21.21875 8.351562 -20.921875 8.9375 -20.328125 C 9.53125 -19.742188 9.828125 -19.03125 9.828125 -18.1875 L 9.828125 0 L 6 0 L 6 -6.765625 L 4.734375 -6.765625 L 4.734375 0 Z M 4.734375 -9.96875 L 6 -9.96875 L 6 -17.40625 C 6 -17.582031 5.9375 -17.726562 5.8125 -17.84375 C 5.695312 -17.96875 5.546875 -18.03125 5.359375 -18.03125 C 5.179688 -18.03125 5.03125 -17.96875 4.90625 -17.84375 C 4.789062 -17.726562 4.734375 -17.582031 4.734375 -17.40625 Z M 4.734375 -9.96875 "/></g></g></g><g fill="#ffffff" fill-opacity="1"><g transform="translate(69.782591, 23.414634)"><g/></g></g><g fill="#ffffff" fill-opacity="1"><g transform="translate(78.904881, 23.414634)"><g><path d="M 6.3125 0 L 6.3125 -3.8125 L 0.90625 -3.8125 L 0.90625 -7.03125 L 3.671875 -21.21875 L 7.484375 -21.21875 L 4.703125 -7.03125 L 6.3125 -7.03125 L 6.3125 -12.828125 L 10.125 -12.828125 L 10.125 -7.03125 L 11.0625 -7.03125 L 11.0625 -3.8125 L 10.125 -3.8125 L 10.125 0 Z M 6.3125 0 "/></g></g></g><g fill="#ffffff" fill-opacity="1"><g transform="translate(93.330489, 23.414634)"><g><path d="M 0.90625 0 L 0.90625 -3.453125 L 4.390625 -3.453125 L 4.390625 0 Z M 0.90625 0 "/></g></g></g><g fill="#ffffff" fill-opacity="1"><g transform="translate(101.089067, 23.414634)"><g><path d="M 3.9375 0 C 3.09375 0 2.375 -0.289062 1.78125 -0.875 C 1.195312 -1.46875 0.90625 -2.1875 0.90625 -3.03125 L 0.90625 -18.1875 C 0.90625 -19.03125 1.195312 -19.742188 1.78125 -20.328125 C 2.375 -20.921875 3.09375 -21.21875 3.9375 -21.21875 L 6.796875 -21.21875 C 7.640625 -21.21875 8.351562 -20.921875 8.9375 -20.328125 C 9.53125 -19.742188 9.828125 -19.03125 9.828125 -18.1875 L 9.828125 -3.03125 C 9.828125 -2.1875 9.53125 -1.46875 8.9375 -0.875 C 8.351562 -0.289062 7.640625 0 6.796875 0 Z M 5.359375 -3.21875 C 5.546875 -3.21875 5.695312 -3.273438 5.8125 -3.390625 C 5.9375 -3.515625 6 -3.664062 6 -3.84375 L 6 -17.40625 C 6 -17.582031 5.9375 -17.726562 5.8125 -17.84375 C 5.695312 -17.96875 5.546875 -18.03125 5.359375 -18.03125 C 5.179688 -18.03125 5.03125 -17.96875 4.90625 -17.84375 C 4.789062 -17.726562 4.734375 -17.582031 4.734375 -17.40625 L 4.734375 -3.84375 C 4.734375 -3.664062 4.789062 -3.515625 4.90625 -3.390625 C 5.03125 -3.273438 5.179688 -3.21875 5.359375 -3.21875 Z M 5.359375 -3.21875 "/></g></g></g></g></g></g></g></g></svg>